<?xml version="1.0" encoding="UTF-8"?> <svg xmlns="http://www.w3.org/2000/svg" width="29" height="29" viewBox="0 0 29 29" fill="none"> <circle cx="14.5" cy="14.5" r="14.5" fill="white"></circle> <circle cx="14.5" cy="14.5" r="12.5" fill="url(#paint0_linear)"></circle> <g clip-path="url(#clip0)"> <path d="M20.31 15.9026C20.6829 12.7635 20.1308 10.7817 19.135 9.88539L19.1355 9.88487C17.5282 8.35414 12.1001 8.12758 10.1772 9.95362C9.31364 10.8469 9.00948 12.1578 8.97614 13.7807C8.94281 15.4041 8.90323 18.4453 11.7371 19.2703H11.7397L11.7371 20.5302C11.7371 20.5302 11.7178 21.0406 12.0439 21.1432C12.4168 21.2641 12.5855 21.0271 13.7454 19.6417C15.685 19.8099 17.1746 19.4245 17.3439 19.3682C17.7355 19.237 19.9517 18.9437 20.31 15.9026ZM13.9366 18.7552C13.9366 18.7552 12.709 20.2859 12.3272 20.6833C12.2022 20.8125 12.0652 20.8005 12.0673 20.5443C12.0673 20.376 12.0767 18.4526 12.0767 18.4526C9.67406 17.764 9.81573 15.1745 9.84177 13.8198C9.86781 12.4646 10.1157 11.3547 10.847 10.6073C12.534 9.02549 17.2928 9.37914 18.5053 10.5187C19.9876 11.8328 19.46 15.5453 19.4631 15.6719C19.1584 18.2104 17.3626 18.3713 17.0324 18.4812C16.8912 18.5281 15.5814 18.8651 13.9366 18.7552V18.7552Z" fill="white"></path> <path d="M14.6152 10.9047C14.4147 10.9047 14.4147 11.2172 14.6152 11.2198C16.171 11.2317 17.4522 12.3161 17.4663 14.3052C17.4663 14.5151 17.7736 14.5125 17.771 14.3026H17.7704C17.7538 12.1594 16.3548 10.9166 14.6152 10.9047V10.9047Z" fill="white"></path> <path d="M16.6624 13.9755C16.6577 14.1828 16.9645 14.1927 16.9671 13.9828C16.9926 12.801 16.264 11.8276 14.8947 11.725C14.6942 11.7104 14.6733 12.0255 14.8733 12.0401C16.0608 12.1302 16.6864 12.9406 16.6624 13.9755V13.9755Z" fill="white"></path> <path d="M16.3345 15.3198C16.0773 15.1708 15.8153 15.2635 15.7069 15.4099L15.4804 15.7031C15.3653 15.852 15.1502 15.8323 15.1502 15.8323C13.5804 15.4172 13.1606 13.7744 13.1606 13.7744C13.1606 13.7744 13.1413 13.552 13.2851 13.4328L13.5684 13.1984C13.7101 13.0859 13.7997 12.8151 13.6554 12.5489C13.27 11.8526 13.0111 11.6125 12.8793 11.4281C12.7408 11.2547 12.5325 11.2156 12.3158 11.3328H12.3111C11.8606 11.5963 11.3674 12.0895 11.5252 12.5974C11.7945 13.1328 12.2892 14.8395 13.8663 16.1291C14.6075 16.739 15.7804 17.364 16.2783 17.5083L16.283 17.5156C16.7736 17.6791 17.2507 17.1666 17.5054 16.7026V16.6989C17.6184 16.4744 17.5809 16.2619 17.4158 16.1229C17.1231 15.8375 16.6814 15.5224 16.3345 15.3198Z" fill="white"></path> <path d="M15.109 12.8875C15.6095 12.9166 15.8522 13.1781 15.8782 13.7151C15.8876 13.925 16.1923 13.9104 16.1829 13.7005C16.1496 12.9994 15.784 12.6088 15.1256 12.5724C14.9251 12.5604 14.9063 12.8755 15.109 12.8875V12.8875Z" fill="white"></path> </g> <defs> <linearGradient id="paint0_linear" x1="24.8571" y1="14.1429" x2="3.42857" y2="14.1429" gradientUnits="userSpaceOnUse"> <stop stop-color="#A54BE3"></stop> <stop offset="1" stop-color="#8443CD"></stop> </linearGradient> <clipPath id="clip0"> <rect width="12.5" height="12.5" fill="white" transform="translate(8.25 8.66666)"></rect> </clipPath> </defs> </svg> 