<?xml version="1.0" encoding="UTF-8"?> <svg xmlns="http://www.w3.org/2000/svg" width="29" height="29" viewBox="0 0 29 29" fill="none"> <circle cx="14.5" cy="14.5" r="14.5" fill="white"></circle> <circle cx="14.5" cy="14.5" r="12.5" fill="url(#paint0_linear)"></circle> <g clip-path="url(#clip0)"> <path d="M8.38856 20.4722C8.31912 20.6111 8.38856 20.75 8.45799 20.8194C8.59689 20.8889 8.73577 20.8889 8.87467 20.8889L10.958 20.125C11.9997 20.8194 13.2496 21.1666 14.4996 21.1666C18.1802 21.1666 21.1663 18.1805 21.1663 14.5C21.1663 10.8194 18.1802 7.83334 14.4997 7.83334C10.8191 7.83334 7.83301 10.8195 7.83301 14.5C7.83301 15.8889 8.24968 17.2778 9.08301 18.3889L8.38856 20.4722ZM8.52746 14.4306C8.52746 11.0972 11.2358 8.45836 14.4997 8.45836C17.7636 8.45836 20.4719 11.1667 20.4719 14.4306C20.4719 17.6945 17.7636 20.4028 14.4997 20.4028C13.3191 20.4028 12.1386 20.0556 11.1663 19.4306C11.0969 19.3611 11.0274 19.3611 10.958 19.3611C10.8886 19.3611 10.8886 19.3611 10.8191 19.3611L9.22185 19.9861L9.7774 18.3889C9.84684 18.25 9.7774 18.1806 9.70796 18.0417C8.94413 17 8.52746 15.75 8.52746 14.4306Z" fill="white" stroke="white" stroke-width="0.1"></path> <path d="M15.331 17.3186C15.5659 17.3676 15.7539 17.4167 15.9889 17.4167C16.5528 17.4167 16.9758 17.1716 17.2577 16.7304C17.3987 16.4363 17.4457 16.1912 17.3987 15.9461C17.3047 15.652 17.0698 15.5049 17.0228 15.4559L16.3179 15.0637C16.2239 15.0147 16.1299 14.9657 16.0359 14.9657C15.5659 14.9657 15.284 15.5049 15.284 15.5049C15.284 15.5049 15.237 15.5539 15.143 15.5539C15.096 15.5539 15.096 15.5539 15.096 15.5539C14.3911 15.3088 13.8741 14.6225 13.6392 14.2794L13.5922 14.2304C13.4042 14.0833 13.3572 14.0833 13.5452 13.8873C13.9211 13.5441 13.8271 13.152 13.7332 13.0049L13.2632 11.8284C13.2162 11.7304 13.0282 11.5833 12.8402 11.5833C12.6053 11.5833 12.3233 11.7304 11.9943 12.0735C11.1954 12.9069 11.8064 14.1814 11.8064 14.1814C12.6993 16.6324 15.237 17.2696 15.331 17.3186ZM12.3233 12.4167C12.6053 12.0735 12.7932 12.0735 12.8402 12.0735L13.2349 11.9657C11.9095 11.3088 12.1728 13.0735 12.0318 13.2206C11.5619 13.6618 12.3984 14.4951 12.6333 14.7892V15.1029C12.8683 15.4461 13.2349 16.0441 14.4379 16.3578C14.4379 16.3578 14.9455 16.6715 15.0395 16.6715C15.2744 16.6715 15.8008 17.1813 15.9417 16.9853C15.9887 16.8382 16.6561 16.8872 16.844 16.9853L17.1448 15.7304C17.1448 15.7304 16.9287 15.848 16.9757 15.9461C17.0227 16.0931 16.9287 16.2402 16.8817 16.3382C16.6467 16.7794 16.1768 16.8774 15.5189 16.7304C15.4249 16.7304 13.1222 16.0931 12.2762 13.9363C12.2293 14.0343 11.7594 13.0539 12.3233 12.4167Z" fill="white" stroke="white" stroke-width="0.1"></path> </g> <defs> <linearGradient id="paint0_linear" x1="24.8571" y1="14.1429" x2="3.42857" y2="14.1429" gradientUnits="userSpaceOnUse"> <stop stop-color="#21C33A"></stop> <stop offset="1" stop-color="#30DC6F"></stop> </linearGradient> <clipPath id="clip0"> <rect width="13.3333" height="13.3333" fill="white" transform="translate(7.83301 7.83334)"></rect> </clipPath> </defs> </svg> 